<?xml version="1.0" encoding="utf-8"?>
<!-- Generator: Adobe Illustrator 22.1.0, SVG Export Plug-In . SVG Version: 6.00 Build 0)  -->
<svg version="1.1" xmlns="http://www.w3.org/2000/svg" xmlns:xlink="http://www.w3.org/1999/xlink" x="0px" y="0px"
	 viewBox="0 0 363.1 43" style="enable-background:new 0 0 363.1 43;" xml:space="preserve">
<style type="text/css">
	.st0{fill:#1F2664;}
</style>
<g id="Layer_1">
	<g>
		<g>
			<path class="st0" d="M-0.6,14.9L44.8,0l7.1,2.6l-20.7,7.7c-4,1.6-6.5,2.8-8,4.4c-2.5,3-0.8,6.3,3.8,9l24.8,14.5l-7,4.8L-0.6,14.9
				z"/>
		</g>
		<g>
			<path class="st0" d="M69.9,9.3l15.2,5.6l-8.5,5.9L63,15.2c-0.6-0.2-1.3-0.6-1.3-1c0-0.5,0.1-0.7,0.8-1L69.9,9.3z"/>
		</g>
		<g>
			<path class="st0" d="M65,7.5l-10.9,5.4c-2.1,0.9-2.4,1.7-2.6,2.6c0.1,0.6,0.8,1.1,2.3,1.8L70.7,25l-6.2,4.4L44,19.4
				c-2.5-1.1-3.9-3-2.3-4.9c0.7-0.9,2-1.6,4.3-2.8l14.1-5.9L65,7.5z"/>
		</g>
	</g>
	<g>
		<g>
			<path class="st0" d="M112.8,34c2.2,0,3.7-1.7,3.7-3.9s-1.5-3.9-3.7-3.9s-3.7,1.7-3.7,3.9C109.1,32.2,110.6,34,112.8,34
				 M112.8,25.2c2.8,0,5,1.8,5,4.9c0,2.9-2.2,4.9-5,4.9s-5-1.8-5-4.9C107.8,27.2,110,25.2,112.8,25.2"/>
		</g>
		<g>
			<path class="st0" d="M119.5,28h1.1v1.1l0,0c0.6-0.8,1.5-1.3,2.3-1.3c1.6,0,2.1,0.8,2.1,2c0,0.5,0,1,0,1.5v3.3h-1.1v-3
				c0-0.6,0-1.2,0-1.9c0-0.7-0.5-1.1-1.2-1.1s-1.3,0.4-2,1.2l-0.1,4.7h-1.1L119.5,28z"/>
		</g>
		<g>
			<path class="st0" d="M131.3,29.8c-0.5-0.8-1-1.1-1.6-1.1c-1.2,0-2,1.3-2,2.7c0,1.8,0.9,2.7,1.8,2.7c0.9,0,1.6-0.7,1.8-1.2V29.8z
				 M131.3,24.6h1.1l-0.1,10.2h-1.1v-0.9l0,0c-0.3,0.6-1.1,1.1-2.1,1.1c-1.1,0-2.7-0.9-2.7-3.5c0-2,1.5-3.6,3.1-3.6
				c0.8,0,1.5,0.4,1.7,0.9l0,0L131.3,24.6z"/>
		</g>
		<g>
			<path class="st0" d="M138.5,30.5c0-1-0.4-1.9-1.5-1.9c-1,0-1.7,0.9-1.8,1.9H138.5z M135,31.2v0.2c0,1.4,0.5,2.7,1.9,2.7
				c0.8,0,1.3-0.4,1.9-1l0.5,0.6c-0.7,0.7-1.6,1.2-2.6,1.2c-1.9,0-3-1.4-3-3.6c0-1.9,1.3-3.6,3.1-3.6s2.6,1.4,2.6,3.2v0.2L135,31.2
				L135,31.2z"/>
		</g>
		<g>
			<path class="st0" d="M141.1,28h1.1v1.3l0,0c0.2-0.6,0.9-1.5,1.9-1.5c0.2,0,0.4,0,0.6,0.1l-0.3,1c-0.1,0-0.3-0.1-0.4-0.1
				c-0.4,0-1.2,0.4-1.7,1.5l-0.1,4.4H141L141.1,28z"/>
		</g>
	</g>
	<polygon class="st0" points="145.3,28.1 146.4,27.8 147.8,33.5 147.9,33.5 149.7,28 150.8,28 152.2,33.5 152.3,33.5 154.1,27.8 
		155.1,28.1 152.7,34.8 151.7,34.8 150.2,29.4 150.2,29.4 148.3,34.8 147.3,34.8 	"/>
	<path class="st0" d="M156.3,28h1.1l-0.1,6.7h-1.1L156.3,28z M156.3,25.4h1.2v1.2h-1.2V25.4z"/>
	<g>
		<g>
			<path class="st0" d="M159.2,25.4h1.2v1.2h-1.2V25.4z M160.3,35.3c0,1.7-0.5,2.7-2.3,2.7v-0.8c0.9,0,1.2-0.5,1.2-1.8l0.1-7.4h1.1
				L160.3,35.3z"/>
		</g>
		<g>
			<path class="st0" d="M162.1,33.6c0.4,0.3,0.9,0.6,1.5,0.6s1.3-0.3,1.3-1.1c0-1.7-3.1-1-3.1-3.2c0-1.3,1-2,2.3-2
				c0.8,0,1.5,0.2,2,0.6l-0.5,0.7c-0.4-0.2-0.8-0.4-1.3-0.4c-0.8,0-1.4,0.3-1.4,1.1c0,1.5,3.1,0.9,3.1,3.1c0,1.3-1.1,2-2.2,2
				c-0.8,0-1.5-0.3-2.1-0.7L162.1,33.6z"/>
		</g>
		<g>
			<path class="st0" d="M170.2,28.6c-0.7,0-1.3,0.7-1.3,1.6c0,0.8,0.4,1.5,1.3,1.5c1,0,1.4-0.7,1.4-1.5
				C171.5,29.2,171.2,28.6,170.2,28.6 M170,37.3c0.8,0,2.3-0.4,2.3-1.6c0-0.8-0.6-1-2.8-1.4c-1.2,0.6-1.5,1.1-1.5,1.7
				C168,37,169.2,37.3,170,37.3 M173.7,28.9h-1.6c0.4,0.4,0.5,0.9,0.5,1.3c0,1.3-1,2.2-2.4,2.2c-0.4,0-0.8-0.1-1.2-0.3
				c-0.6,0.5-0.7,0.6-0.7,0.8s0.2,0.4,2.1,0.7c1.8,0.3,2.9,0.7,2.9,1.9c0,1.7-2,2.4-3.4,2.4c-1.2,0-3.1-0.3-3.1-1.9
				c0-0.9,1.1-1.5,1.8-1.9l0,0c-1.2-0.1-1.6-0.5-1.6-0.9s0.4-0.8,1.6-1.4c-0.6-0.5-0.9-1-0.9-1.8c0-1.3,1.1-2.2,2.4-2.2
				c0.4,0,0.9,0.1,1.3,0.3h2.3L173.7,28.9L173.7,28.9z"/>
		</g>
		<g>
			<path class="st0" d="M178.9,30.5c0-1-0.4-1.9-1.5-1.9c-1,0-1.7,0.9-1.8,1.9H178.9z M175.4,31.2v0.2c0,1.4,0.5,2.7,1.9,2.7
				c0.8,0,1.3-0.4,1.9-1l0.5,0.6c-0.7,0.7-1.6,1.2-2.6,1.2c-1.9,0-3-1.4-3-3.6c0-1.9,1.3-3.6,3.1-3.6s2.6,1.4,2.6,3.2v0.2
				L175.4,31.2L175.4,31.2z"/>
		</g>
		<g>
			<path class="st0" d="M181.5,28h1.1v1l0,0c0.6-0.7,1.3-1.2,2.2-1.2c0.8,0,1.5,0.4,1.7,1.2c0.6-0.6,1.5-1.2,2.3-1.2
				c1.4,0,1.9,0.8,1.9,2c0,0.5,0,1,0,1.5v3.3h-1.1v-3c0-0.6,0-1.2,0-1.9c0-0.7-0.5-1.1-1.1-1.1c-0.8,0-1.4,0.5-1.9,1.1l-0.1,4.8
				h-1.1v-3c0-0.6,0-1.2,0-1.9c0-0.7-0.5-1.1-1.1-1.1c-0.8,0-1.4,0.5-1.9,1.1l-0.1,4.8h-1.1L181.5,28z"/>
		</g>
		<g>
			<path class="st0" d="M196.8,30.5c0-1-0.4-1.9-1.5-1.9c-1,0-1.7,0.9-1.8,1.9H196.8z M193.4,31.2v0.2c0,1.4,0.5,2.7,1.9,2.7
				c0.8,0,1.3-0.4,1.9-1l0.5,0.6c-0.7,0.7-1.6,1.2-2.6,1.2c-1.9,0-3-1.4-3-3.6c0-1.9,1.3-3.6,3.1-3.6s2.6,1.4,2.6,3.2v0.2
				L193.4,31.2L193.4,31.2z"/>
		</g>
		<g>
			<path class="st0" d="M203.6,30.5c0-1-0.4-1.9-1.5-1.9c-1,0-1.7,0.9-1.8,1.9H203.6z M200.1,31.2v0.2c0,1.4,0.5,2.7,1.9,2.7
				c0.8,0,1.3-0.4,1.9-1l0.5,0.6c-0.7,0.7-1.6,1.2-2.6,1.2c-1.9,0-3-1.4-3-3.6c0-1.9,1.3-3.6,3.1-3.6s2.6,1.4,2.6,3.2v0.2
				L200.1,31.2L200.1,31.2z"/>
		</g>
		<g>
			<path class="st0" d="M206.2,28h1.1v1.1l0,0c0.6-0.8,1.5-1.3,2.3-1.3c1.6,0,2.1,0.8,2.1,2c0,0.5,0,1,0,1.5v3.3h-1.1v-3
				c0-0.6,0-1.2,0-1.9c0-0.7-0.5-1.1-1.2-1.1s-1.3,0.4-2,1.2l-0.1,4.7h-1.1V28z"/>
		</g>
		<g>
			<path class="st0" d="M213.4,33.6c0.4,0.3,0.9,0.6,1.5,0.6s1.3-0.3,1.3-1.1c0-1.7-3.1-1-3.1-3.2c0-1.3,1-2,2.3-2
				c0.8,0,1.5,0.2,2,0.6l-0.5,0.7c-0.4-0.2-0.8-0.4-1.3-0.4c-0.8,0-1.4,0.3-1.4,1.1c0,1.5,3.1,0.9,3.1,3.1c0,1.3-1.1,2-2.2,2
				c-0.8,0-1.5-0.3-2.1-0.7L213.4,33.6z"/>
		</g>
		<g>
			<path class="st0" d="M222.9,29.5c-0.4-0.5-0.9-0.8-1.5-0.8c-1,0-2,1-2,2.9c0,1.5,1,2.5,2,2.5c0.6,0,1.2-0.4,1.5-0.9l0.6,0.6
				c-0.6,0.8-1.4,1.1-2.3,1.1c-1.7,0-3-1.3-3-3.6c0-1.9,1.3-3.6,3.2-3.6c0.9,0,1.7,0.4,2.2,1.1L222.9,29.5z"/>
		</g>
		<g>
			<path class="st0" d="M224.8,24.6h1.1l-0.1,4.5l0,0c0.5-0.8,1.5-1.2,2.3-1.2c1.6,0,2.1,0.8,2.1,2c0,0.5,0,1,0,1.5v3.3h-1.1v-3
				c0-0.6,0-1.2,0-1.9c0-0.7-0.5-1.1-1.2-1.1s-1.3,0.4-2,1.2l-0.1,4.7h-1.1L224.8,24.6z"/>
		</g>
		<g>
			<path class="st0" d="M235.5,31.2c-1.9,0.2-2.9,0.6-2.9,1.7c0,0.8,0.5,1.2,1.2,1.2s1.2-0.5,1.6-1L235.5,31.2z M237.8,34.5
				c-0.4,0.3-0.8,0.5-1.3,0.5c-0.6,0-0.9-0.6-1-1.1c-0.5,0.6-1.2,1.1-2,1.1c-1.2,0-2-0.8-2-2c0-1.9,2.5-2.4,3.9-2.4
				c0-0.3,0-0.6,0-0.9c0-0.6-0.3-1-1-1c-0.5,0-1,0.2-1.9,0.9l-0.4-0.7c1.4-0.9,1.8-1.1,2.8-1.1c1.1,0,1.7,0.7,1.7,1.7
				c0,1.3-0.1,2.5-0.1,3.6c0,0.5,0.1,1,0.5,1c0.2,0,0.4-0.1,0.6-0.2L237.8,34.5z"/>
		</g>
		<g>
			<path class="st0" d="M239.9,33c0.5,0.7,1,1.1,1.7,1.1c1.2,0,2-1.3,2-2.7c0-1.8-0.9-2.7-1.8-2.7c-0.9,0-1.6,0.7-1.9,1.2V33z
				 M238.9,28h1.1v0.9l0,0c0.4-0.6,1.1-1.1,2.1-1.1c1.2,0,2.7,0.9,2.7,3.5c0,1.8-1.2,3.6-3,3.6c-0.9,0-1.6-0.4-1.9-0.9l0,0v4.1h-1.1
				L238.9,28z"/>
		</g>
	</g>
	<polygon class="st0" points="249.3,25.7 250.4,25.2 253.5,33.4 256.9,25.2 258,25.5 254,34.8 253,34.8 	"/>
	<g>
		<g>
			<path class="st0" d="M262.6,30.5c0-1-0.4-1.9-1.5-1.9c-1,0-1.7,0.9-1.8,1.9H262.6z M259.1,31.2v0.2c0,1.4,0.5,2.7,1.9,2.7
				c0.8,0,1.3-0.4,1.9-1l0.5,0.6c-0.7,0.7-1.6,1.2-2.6,1.2c-1.9,0-3-1.4-3-3.6c0-1.9,1.3-3.6,3.1-3.6c1.8,0,2.6,1.4,2.6,3.2v0.2
				L259.1,31.2L259.1,31.2z"/>
		</g>
		<g>
			<path class="st0" d="M265.2,28h1.1v1.1l0,0c0.6-0.8,1.5-1.3,2.3-1.3c1.6,0,2.1,0.8,2.1,2c0,0.5,0,1,0,1.5v3.3h-1.1v-3
				c0-0.6,0-1.2,0-1.9c0-0.7-0.5-1.1-1.2-1.1s-1.3,0.4-2,1.2l-0.1,4.7h-1.1L265.2,28z"/>
		</g>
	</g>
	<polygon class="st0" points="272.5,24.6 273.6,24.6 273.5,34.8 272.4,34.8 	"/>
	<g>
		<g>
			<path class="st0" d="M278.2,34.1c1,0,2.1-0.9,2.1-2.8c0-1.9-0.9-2.8-2-2.8c-1,0-2.1,0.9-2.1,2.8
				C276.1,33.3,277.1,34.1,278.2,34.1 M278.3,27.8c2,0,3.2,1.4,3.2,3.6c0,1.8-1.2,3.6-3.3,3.6c-2,0-3.2-1.3-3.2-3.6
				C275,29.6,276.1,27.8,278.3,27.8"/>
		</g>
		<g>
			<path class="st0" d="M289.8,28.5c0.8-0.6,1.1-1,1.1-1.4c0-0.6-0.4-0.9-1-0.9s-0.9,0.4-0.9,0.9S289.5,28.2,289.8,28.5 M289.5,29.7
				c-0.7,0.6-1.4,1.3-1.4,2.5s1,2,2.2,2c0.9,0,1.7-0.4,2.3-1.1L289.5,29.7z M293.1,33.6c-0.7,0.9-1.8,1.4-3,1.4
				c-2.3,0-3.3-1.5-3.3-2.8c0-1.4,0.7-2.2,2.1-3.1c-0.5-0.5-0.8-1.2-0.8-1.9c0-1,0.9-1.8,1.9-1.8c0.9,0,1.8,0.5,1.8,1.6
				c0,0.9-0.8,1.6-1.5,2.1l2.6,2.8c0.2-0.6,0.3-1.2,0.3-1.8v-0.6h1c0,1.1,0,2.2-0.5,3.1l1.6,1.6l-0.9,0.7L293.1,33.6z"/>
		</g>
		<g>
			<path class="st0" d="M304.9,34c2.2,0,3.7-1.7,3.7-3.9s-1.5-3.9-3.7-3.9s-3.7,1.7-3.7,3.9C301.2,32.2,302.8,34,304.9,34
				 M304.9,25.2c2.8,0,5,1.8,5,4.9c0,2.9-2.2,4.9-5,4.9s-5-1.8-5-4.9C300,27.2,302.2,25.2,304.9,25.2"/>
		</g>
		<g>
			<path class="st0" d="M311.7,28h1.1v1l0,0c0.6-0.7,1.3-1.2,2.2-1.2c0.8,0,1.5,0.4,1.7,1.2c0.6-0.6,1.5-1.2,2.3-1.2
				c1.4,0,1.9,0.8,1.9,2c0,0.5,0,1,0,1.5v3.3h-1.1v-3c0-0.6,0-1.2,0-1.9c0-0.7-0.5-1.1-1.1-1.1c-0.8,0-1.4,0.5-1.9,1.1l-0.1,4.8
				h-1.1v-3c0-0.6,0-1.2,0-1.9c0-0.7-0.5-1.1-1.1-1.1c-0.8,0-1.4,0.5-1.9,1.1l-0.1,4.8h-1.1L311.7,28z"/>
		</g>
		<g>
			<path class="st0" d="M322.7,33.6c0.4,0.3,0.9,0.6,1.5,0.6s1.3-0.3,1.3-1.1c0-1.7-3.1-1-3.1-3.2c0-1.3,1-2,2.3-2
				c0.8,0,1.5,0.2,2,0.6l-0.5,0.7c-0.4-0.2-0.8-0.4-1.3-0.4c-0.8,0-1.4,0.3-1.4,1.1c0,1.5,3.1,0.9,3.1,3.1c0,1.3-1.1,2-2.2,2
				c-0.8,0-1.5-0.3-2.1-0.7L322.7,33.6z"/>
		</g>
		<g>
			<path class="st0" d="M328.7,28v-2.5h1.1V28h1.8v0.8h-1.9v2.8c0,0.8,0,1.3,0,1.6c0,0.6,0.2,0.9,0.6,0.9s0.8-0.2,1.1-0.4l0.4,0.7
				c-0.4,0.3-1.1,0.6-1.7,0.6c-1,0-1.5-0.6-1.5-1.7c0-0.4,0-1,0-1.9v-2.5h-1.1V28H328.7z"/>
		</g>
		<g>
			<path class="st0" d="M332.8,28h1.1v1.3l0,0c0.2-0.6,0.9-1.5,1.9-1.5c0.2,0,0.4,0,0.6,0.1l-0.3,1c-0.1,0-0.3-0.1-0.4-0.1
				c-0.4,0-1.2,0.4-1.7,1.5l-0.1,4.4h-1.1V28z"/>
		</g>
		<g>
			<path class="st0" d="M341.2,30.5c0-1-0.4-1.9-1.5-1.9c-1,0-1.7,0.9-1.8,1.9H341.2z M337.8,31.2v0.2c0,1.4,0.5,2.7,1.9,2.7
				c0.8,0,1.3-0.4,1.9-1l0.5,0.6c-0.7,0.7-1.6,1.2-2.6,1.2c-1.9,0-3-1.4-3-3.6c0-1.9,1.3-3.6,3.1-3.6c1.8,0,2.6,1.4,2.6,3.2v0.2
				L337.8,31.2L337.8,31.2z"/>
		</g>
	</g>
	<polygon class="st0" points="343.9,24.6 344.9,24.6 344.9,31.3 348.3,27.7 349.1,28.4 346.2,31.1 349.1,34.4 348.3,35.1 
		344.9,31.3 344.8,34.8 343.8,34.8 	"/>
	<g>
		<g>
			<path class="st0" d="M354.3,30.5c0-1-0.4-1.9-1.5-1.9c-1,0-1.7,0.9-1.8,1.9H354.3z M350.9,31.2v0.2c0,1.4,0.5,2.7,1.9,2.7
				c0.8,0,1.3-0.4,1.9-1l0.5,0.6c-0.7,0.7-1.6,1.2-2.6,1.2c-1.9,0-3-1.4-3-3.6c0-1.9,1.3-3.6,3.1-3.6c1.8,0,2.6,1.4,2.6,3.2v0.2
				L350.9,31.2L350.9,31.2z"/>
		</g>
		<g>
			<path class="st0" d="M356.9,28h1.1v1.1l0,0c0.6-0.8,1.5-1.3,2.3-1.3c1.6,0,2.1,0.8,2.1,2c0,0.5,0,1,0,1.5v3.3h-1.1v-3
				c0-0.6,0-1.2,0-1.9c0-0.7-0.5-1.1-1.2-1.1s-1.3,0.4-2,1.2l-0.1,4.7h-1.1L356.9,28z"/>
		</g>
	</g>
</g>
<g id="Layer_4">
	<path class="st0" d="M114.7,4.8c4.3,0,6.8,3,6.8,6.7s-2.5,6.7-6.8,6.7c-4.3,0-6.9-3-6.9-6.7S110.4,4.8,114.7,4.8 M114.7,15.6
		c1.9,0,3.4-1.3,3.4-4.1c0-2.8-1.5-4.1-3.4-4.1c-1.9,0-3.4,1.3-3.4,4.1C111.3,14.3,112.8,15.6,114.7,15.6"/>
	<path class="st0" d="M134.8,17.4c-1.5,0.7-3.2,0.9-4.9,0.9c-4.3,0-6.9-2.7-6.9-6.8c0-4,2.7-6.6,7.3-6.6c1.7,0,3.1,0.4,4,0.9l-1,2.4
		c-0.7-0.4-1.9-0.7-2.6-0.7c-2.4,0-4.2,1.6-4.2,4c0,2.3,1.4,4.1,3.8,4.1c0.6,0,1.1-0.1,1.3-0.3l0.1-4.3h3.2L134.8,17.4z"/>
	<polygon class="st0" points="136.1,5.2 139.5,5.2 142.5,14.6 142.5,14.6 145.6,5.2 149,5.2 144.4,17.9 140.8,17.9 	"/>
	<path class="st0" d="M156.2,4.8c4.3,0,6.8,3,6.8,6.7s-2.5,6.7-6.8,6.7c-4.3,0-6.9-3-6.9-6.7S151.9,4.8,156.2,4.8 M156.2,15.6
		c1.9,0,3.4-1.3,3.4-4.1c0-2.8-1.5-4.1-3.4-4.1c-1.9,0-3.4,1.3-3.4,4.1C152.8,14.3,154.3,15.6,156.2,15.6"/>
</g>
</svg>
